<svg width="64" height="64" viewBox="0 0 64 64" fill="none" xmlns="http://www.w3.org/2000/svg">
<rect width="64" height="64" rx="4" fill="#121212"/>
<path d="M32.625 39.6364V38.4091C32.625 37.4773 32.822 36.6212 33.2159 35.8409C33.6174 35.053 34.197 34.4242 34.9545 33.9545C35.7197 33.4773 36.6515 33.2386 37.75 33.2386C38.8636 33.2386 39.7992 33.4735 40.5568 33.9432C41.322 34.4129 41.8977 35.0417 42.2841 35.8295C42.678 36.6098 42.875 37.4697 42.875 38.4091V39.6364C42.875 40.5682 42.678 41.428 42.2841 42.2159C41.8902 42.9962 41.3106 43.6212 40.5455 44.0909C39.7803 44.5682 38.8485 44.8068 37.75 44.8068C36.6364 44.8068 35.7008 44.5682 34.9432 44.0909C34.1856 43.6212 33.6098 42.9962 33.2159 42.2159C32.822 41.428 32.625 40.5682 32.625 39.6364ZM35.9318 38.4091V39.6364C35.9318 40.1742 36.0606 40.6818 36.3182 41.1591C36.5833 41.6364 37.0606 41.875 37.75 41.875C38.4394 41.875 38.9091 41.6402 39.1591 41.1705C39.4167 40.7008 39.5455 40.1894 39.5455 39.6364V38.4091C39.5455 37.8561 39.4242 37.3409 39.1818 36.8636C38.9394 36.3864 38.4621 36.1477 37.75 36.1477C37.0682 36.1477 36.5947 36.3864 36.3295 36.8636C36.0644 37.3409 35.9318 37.8561 35.9318 38.4091ZM20.6818 26.3182V25.0909C20.6818 24.1515 20.8826 23.2917 21.2841 22.5114C21.6856 21.7235 22.2652 21.0947 23.0227 20.625C23.7879 20.1553 24.7121 19.9205 25.7955 19.9205C26.9167 19.9205 27.8561 20.1553 28.6136 20.625C29.3712 21.0947 29.947 21.7235 30.3409 22.5114C30.7348 23.2917 30.9318 24.1515 30.9318 25.0909V26.3182C30.9318 27.2576 30.7311 28.1174 30.3295 28.8977C29.9356 29.678 29.3561 30.303 28.5909 30.7727C27.8333 31.2348 26.9015 31.4659 25.7955 31.4659C24.6894 31.4659 23.7538 31.2311 22.9886 30.7614C22.2311 30.2841 21.6553 29.6591 21.2614 28.8864C20.875 28.1061 20.6818 27.25 20.6818 26.3182ZM24.0114 25.0909V26.3182C24.0114 26.8712 24.1402 27.3826 24.3977 27.8523C24.6629 28.322 25.1288 28.5568 25.7955 28.5568C26.4924 28.5568 26.9659 28.322 27.2159 27.8523C27.4735 27.3826 27.6023 26.8712 27.6023 26.3182V25.0909C27.6023 24.5379 27.4811 24.0227 27.2386 23.5455C26.9962 23.0682 26.5152 22.8295 25.7955 22.8295C25.1212 22.8295 24.6553 23.072 24.3977 23.5568C24.1402 24.0417 24.0114 24.553 24.0114 25.0909ZM22.1818 44L38.1818 20.7273H41.1591L25.1591 44H22.1818Z" fill="white"/>
</svg>
